<svg baseProfile="tiny" xmlns="http://www.w3.org/2000/svg" width="64" height="64"><path fill="#EFEFEF" d="M48.4 52.3c3.4 0 6.3-2.8 6.3-6.3 0-3.4-2.8-6.3-6.3-6.3-2.3 0-4.4 1.3-5.4 3.2H25V46c0 5.2-4.2 9.4-9.4 9.4S6.2 51.2 6.2 46c0-4.3 2.9-8 7.1-9.1l-1.5-6C4.8 32.8 0 39 0 46.1c0 8.6 7 15.6 15.6 15.6 7.5 0 13.8-5.4 15.3-12.5H43c1.1 1.8 3.1 3.1 5.4 3.1z"/><path fill="#EFEFEF" d="M48.4 30.5c-1.6 0-3.2.2-4.7.7l-5.6-10c.6-.9.9-2.1.9-3.2 0-3.4-2.8-6.3-6.3-6.3-3.4 0-6.3 2.8-6.3 6.3 0 3.4 2.8 6.2 6.2 6.2L41 39.3l2.7-1.5c1.4-.8 2.9-1.2 4.5-1.2 5.2 0 9.4 4.2 9.4 9.4s-4.2 9.4-9.4 9.4c-2.9 0-5.5-1.3-7.3-3.5l-4.8 3.9c3 3.7 7.4 5.8 12.2 5.8 8.6 0 15.6-7 15.6-15.6.1-8.5-6.9-15.5-15.5-15.5z"/><path fill="#E91E63" d="M32.8 2.3c-8.6 0-15.6 7-15.6 15.6 0 2.7.7 5.3 2 7.6.8 1.4 1.8 2.7 3 3.8l-6.4 10.5h-.2c-3.4 0-6.3 2.8-6.3 6.3 0 3.4 2.8 6.3 6.3 6.3 3.4 0 6.3-2.8 6.3-6.3 0-1.1-.3-2.1-.8-3l9.4-15.5-2.6-1.6c-2.8-1.7-4.5-4.8-4.5-8 0-5.2 4.2-9.4 9.4-9.4s9.4 4.2 9.4 9.4c0 .8-.1 1.6-.3 2.4l6 1.6c.3-1.3.5-2.6.5-4 0-8.7-7-15.7-15.6-15.7z"/></svg>